<?xml version="1.0" encoding="UTF-8" standalone="no"?>

<svg
   width="142.88861mm"
   height="110.59094mm"
   viewBox="0 0 142.88861 110.59094"
   version="1.1"
   id="svg1"
   xml:space="preserve"
   xmlns="http://www.w3.org/2000/svg"
   xmlns:svg="http://www.w3.org/2000/svg"><defs
     id="defs1" /><g
     id="layer1"
     transform="translate(-223.62102,-193.31852)"><path
       id="path1"
       style="fill:#ecd8bd;fill-opacity:1"
       d="m 331.41959,193.32674 c -1.365,1.40337 -31.4034,51.40137 -35.1363,58.48325 -2.5877,4.90925 -2.6323,5.05239 -2.3441,7.60005 l 0.2941,2.59674 -6.9655,14.21619 c -5.1452,9.33904 -4.9629,9.38967 -5.3588,12.81575 -1.0003,8.65607 5.8662,15.19892 14.2745,14.85801 13.4649,-0.44291 15.6396,-13.78054 11.9569,-20.54758 -4.6665,-8.57499 -14.1286,-7.01062 -14.9339,-8.21345 -0.6582,-0.9831 -0.3062,-3.54067 0.8495,-6.17534 1.5296,-3.47442 3.3188,-6.82059 5.0307,-10.20816 1.1354,-2.31531 1.4634,-2.64994 2.7296,-2.78743 0.7915,-0.0859 7.4057,-1.04158 14.6983,-2.12338 7.2926,-1.0818 21.5591,-3.19365 31.7035,-4.69325 10.1444,-1.49961 18.3759,-2.79585 18.2909,-2.88045 -0.085,-0.0846 -14.1361,0.84722 -31.2255,2.07068 -17.0894,1.22347 -31.2054,2.22467 -31.3687,2.22467 -0.1632,0 -0.5235,0.49712 -0.8004,1.10484 -0.4701,1.0319 -0.4235,1.10522 0.7028,1.10122 2.2647,-0.007 13.6451,-1.59711 14.3588,-1.56631 2.3777,0.10243 -15.324,2.13007 -16.3008,2.94091 -0.389,0.32279 1.827,-4.47791 4.9242,-10.66809 3.0972,-6.19017 7.3202,-14.73551 9.385,-18.98953 2.0648,-4.25403 6.4345,-13.10471 9.71,-19.66805 3.2755,-6.56336 5.7616,-11.73437 5.5252,-11.49129 z m -39.8616,24.68118 -16.4176,18.79213 c -1.5456,-5.19719 -6.08977,-10.26605 -13.87308,-10.30324 -11.18021,-0.0535 -16.42764,11.44353 -14.23375,18.88721 l -3.06132,0.24857 -1.67225,-20.07681 -4.11189,0.33383 -14.56707,19.84065 0.42271,5.07462 15.93236,-1.29398 0.76998,9.2444 0.0568,-0.005 c -0.083,0.22787 0.69756,0.17305 2.52904,0.0124 44.01197,-3.86058 44.01187,-4.9599 44.01187,-4.9599 l 2.652,1.25264 c 1.4585,0.68874 2.8592,1.25244 3.1125,1.25263 0.4182,3.2e-4 2.7421,-4.20245 2.6272,-4.75681 h 0.041 v -9.43922 h 5.0674 v -3.60443 h -5.0674 v -20.50004 z m -0.1835,5.36143 v 15.13861 h -13.2297 z m -29.88084,6.61975 c 0.90483,0.0113 1.83513,0.14481 2.77865,0.41909 8.92878,2.59567 10.63899,14.61101 2.77192,19.47479 -6.04706,3.7386 -15.66179,0.69847 -16.47858,-8.56951 -0.48451,-5.49751 4.59421,-11.40371 10.92801,-11.32437 z m -23.04665,1.16582 1.23507,14.82597 -12.89327,1.04696 z m 37.21429,10.95747 h 15.7132 v 9.34568 c -0.1706,0.01 -0.3189,0.0106 -0.4945,0.0233 -2.674,0.19325 -6.8735,0.3639 -9.3323,0.3793 -3.9354,0.0246 -4.6159,-0.0859 -5.6833,-0.92552 -2.2669,-1.83788 -0.4568,-5.64537 -0.2946,-8.107 0.044,-0.23095 0.063,-0.47572 0.091,-0.71572 z m -26.83456,6.6797 c 0.21839,0.25359 0.44773,0.49766 0.69815,0.72192 1.2337,1.10485 1.98576,2.25815 1.79782,2.3952 -2.64885,1.93157 -4.74729,3.26627 -6.46886,4.30775 l -0.58756,-7.05435 z m 49.93236,3.56154 c 0.3737,-0.0446 0.7642,0.10174 0.9865,0.46147 0.1647,0.26641 0.027,0.75631 -0.3054,1.08882 -0.7667,0.76647 -1.9436,0.11633 -1.5668,-0.86558 0.1553,-0.40474 0.512,-0.64017 0.8857,-0.68471 z m -3.0107,26.69707 c 1.8164,0.002 3.6376,0.33625 4.8969,1.00098 6.09,3.21467 6.8055,10.16453 5.4963,13.60382 -4.812,11.07953 -14.0401,6.8109 -14.9588,6.35206 -8.4333,-4.21179 -8.6051,-15.54181 -0.3028,-19.96829 1.2406,-0.66148 3.0521,-0.99093 4.8684,-0.98857 z" /></g></svg>
