<svg width="2289" height="2862" viewBox="0 0 2289 2862" fill="none" xmlns="http://www.w3.org/2000/svg">
<g clip-path="url(#clip0_77_147)">
<path d="M1539.1 1124.38L1499.35 1126.78L1529.15 1100.37C1529.28 1100.25 1529.42 1100.11 1529.54 1099.97C1531.24 1098.06 1531.06 1095.14 1529.15 1093.45C1527.24 1091.76 1524.32 1091.93 1522.63 1093.84L1496.22 1123.65L1498.61 1083.9C1498.62 1083.72 1498.62 1083.52 1498.61 1083.34C1498.46 1080.79 1496.27 1078.86 1493.72 1079.01C1491.17 1079.16 1489.23 1081.35 1489.38 1083.9L1491.78 1123.65L1465.37 1093.85C1465.26 1093.72 1465.11 1093.58 1464.98 1093.46C1463.07 1091.76 1460.15 1091.94 1458.46 1093.85C1456.76 1095.76 1456.94 1098.68 1458.85 1100.37L1488.65 1126.78L1448.9 1124.38C1448.72 1124.37 1448.52 1124.37 1448.34 1124.38C1445.79 1124.54 1443.86 1126.73 1444.01 1129.28C1444.16 1131.83 1446.35 1133.77 1448.9 1133.62L1488.65 1131.22L1458.85 1157.63C1458.72 1157.75 1458.58 1157.89 1458.46 1158.03C1456.76 1159.94 1456.94 1162.86 1458.85 1164.55C1460.76 1166.24 1463.68 1166.07 1465.37 1164.16L1491.78 1134.35L1489.39 1174.1C1489.38 1174.28 1489.37 1174.48 1489.39 1174.66C1489.54 1177.21 1491.73 1179.14 1494.28 1178.99C1496.83 1178.84 1498.77 1176.65 1498.62 1174.1L1496.22 1134.35L1522.63 1164.15C1522.75 1164.28 1522.89 1164.42 1523.03 1164.54C1524.94 1166.24 1527.86 1166.06 1529.55 1164.15C1531.24 1162.24 1531.07 1159.32 1529.16 1157.63L1499.35 1131.22L1539.1 1133.62C1539.28 1133.63 1539.48 1133.63 1539.66 1133.62C1542.21 1133.46 1544.15 1131.27 1543.99 1128.72C1543.84 1126.17 1541.65 1124.23 1539.1 1124.38Z" fill="#ECD8BD"/>
</g>
<g clip-path="url(#clip1_77_147)">
<path d="M1832.1 510.385L1792.35 512.783L1822.15 486.366C1822.28 486.252 1822.42 486.107 1822.54 485.974C1824.24 484.065 1824.06 481.141 1822.15 479.45C1820.24 477.758 1817.32 477.933 1815.63 479.842L1789.22 509.654L1791.61 469.899C1791.62 469.724 1791.62 469.519 1791.61 469.343C1791.46 466.794 1789.27 464.855 1786.72 465.006C1784.17 465.157 1782.23 467.35 1782.38 469.899L1784.78 509.654L1758.37 479.848C1758.26 479.715 1758.11 479.577 1757.98 479.456C1756.07 477.764 1753.15 477.939 1751.46 479.848C1749.76 481.757 1749.94 484.681 1751.85 486.372L1781.65 512.783L1741.9 510.385C1741.72 510.373 1741.52 510.373 1741.34 510.385C1738.79 510.536 1736.86 512.729 1737.01 515.278C1737.16 517.827 1739.35 519.766 1741.9 519.615L1781.65 517.217L1751.85 543.634C1751.72 543.748 1751.58 543.893 1751.46 544.026C1749.76 545.935 1749.94 548.859 1751.85 550.55C1753.76 552.242 1756.68 552.067 1758.37 550.158L1784.78 520.346L1782.39 560.101C1782.38 560.276 1782.37 560.481 1782.39 560.657C1782.54 563.206 1784.73 565.145 1787.28 564.994C1789.83 564.843 1791.77 562.65 1791.62 560.101L1789.22 520.346L1815.63 550.152C1815.75 550.285 1815.89 550.423 1816.03 550.544C1817.94 552.236 1820.86 552.061 1822.55 550.152C1824.24 548.243 1824.07 545.319 1822.16 543.628L1792.35 517.217L1832.1 519.615C1832.28 519.627 1832.48 519.627 1832.66 519.615C1835.21 519.464 1837.15 517.271 1836.99 514.722C1836.84 512.173 1834.65 510.234 1832.1 510.385Z" fill="#ECD8BD"/>
</g>
<g clip-path="url(#clip2_77_147)">
<path d="M449.101 2403.38L409.346 2405.78L439.152 2379.37C439.285 2379.25 439.424 2379.11 439.545 2378.97C441.236 2377.06 441.061 2374.14 439.152 2372.45C437.243 2370.76 434.319 2370.93 432.628 2372.84L406.217 2402.65L408.609 2362.9C408.621 2362.72 408.621 2362.52 408.609 2362.34C408.458 2359.79 406.266 2357.86 403.716 2358.01C401.167 2358.16 399.228 2360.35 399.379 2362.9L401.777 2402.65L375.373 2372.85C375.258 2372.72 375.113 2372.58 374.98 2372.46C373.071 2370.76 370.147 2370.94 368.456 2372.85C366.765 2374.76 366.94 2377.68 368.849 2379.37L398.654 2405.78L358.899 2403.38C358.724 2403.37 358.519 2403.37 358.344 2403.38C355.794 2403.54 353.855 2405.73 354.006 2408.28C354.157 2410.83 356.35 2412.77 358.899 2412.62L398.654 2410.22L368.849 2436.63C368.722 2436.75 368.577 2436.89 368.456 2437.03C366.765 2438.94 366.94 2441.86 368.849 2443.55C370.758 2445.24 373.681 2445.07 375.373 2443.16L401.783 2413.35L399.385 2453.1C399.379 2453.28 399.373 2453.48 399.385 2453.66C399.536 2456.21 401.729 2458.14 404.278 2457.99C406.827 2457.84 408.766 2455.65 408.615 2453.1L406.217 2413.35L432.634 2443.15C432.749 2443.28 432.894 2443.42 433.026 2443.54C434.935 2445.24 437.859 2445.06 439.551 2443.15C441.242 2441.24 441.067 2438.32 439.158 2436.63L409.346 2410.22L449.101 2412.62C449.276 2412.63 449.482 2412.63 449.657 2412.62C452.206 2412.46 454.145 2410.27 453.994 2407.72C453.837 2405.17 451.65 2403.23 449.101 2403.38Z" fill="#ECD8BD"/>
</g>
<g clip-path="url(#clip3_77_147)">
<path d="M631.415 1586.74L586.094 1589.47L620.072 1559.36C620.224 1559.23 620.382 1559.06 620.52 1558.91C622.448 1556.73 622.249 1553.4 620.072 1551.47C617.896 1549.54 614.563 1549.74 612.635 1551.92L582.527 1585.91L585.254 1540.58C585.268 1540.39 585.268 1540.15 585.254 1539.95C585.082 1537.05 582.582 1534.83 579.676 1535.01C576.77 1535.18 574.559 1537.68 574.731 1540.58L577.465 1585.91L547.364 1551.93C547.233 1551.78 547.068 1551.62 546.917 1551.48C544.74 1549.55 541.407 1549.75 539.479 1551.93C537.551 1554.1 537.751 1557.44 539.927 1559.36L573.905 1589.47L528.585 1586.74C528.385 1586.72 528.151 1586.72 527.951 1586.74C525.045 1586.91 522.834 1589.41 523.006 1592.32C523.179 1595.22 525.678 1597.43 528.585 1597.26L573.905 1594.53L539.927 1624.64C539.782 1624.77 539.617 1624.94 539.479 1625.09C537.551 1627.27 537.751 1630.6 539.927 1632.53C542.103 1634.46 545.436 1634.26 547.364 1632.08L577.472 1598.09L574.738 1643.41C574.731 1643.61 574.724 1643.85 574.738 1644.05C574.91 1646.95 577.41 1649.17 580.316 1648.99C583.223 1648.82 585.433 1646.32 585.261 1643.41L582.527 1598.09L612.642 1632.07C612.773 1632.22 612.938 1632.38 613.089 1632.52C615.266 1634.45 618.599 1634.25 620.527 1632.07C622.455 1629.9 622.255 1626.56 620.079 1624.64L586.094 1594.53L631.415 1597.26C631.614 1597.28 631.848 1597.28 632.048 1597.26C634.954 1597.09 637.165 1594.59 636.993 1591.68C636.814 1588.78 634.321 1586.57 631.415 1586.74Z" fill="#ECD8BD"/>
</g>
<g clip-path="url(#clip4_77_147)">
<path d="M1654 1730V1772.12V1822" stroke="#ECD8BD" stroke-width="5.73433" stroke-miterlimit="10"/>
<path d="M1700 1776H1657.88H1608" stroke="#ECD8BD" stroke-width="5.73433" stroke-miterlimit="10"/>
<path d="M1686.52 1743.48L1656.74 1773.25L1621.48 1808.52" stroke="#ECD8BD" stroke-width="5.73433" stroke-miterlimit="10"/>
<path d="M1686.52 1808.52L1656.74 1778.74L1621.48 1743.48" stroke="#ECD8BD" stroke-width="5.73433" stroke-miterlimit="10"/>
<path d="M1696.07 1794.59L1657.55 1777.57L1611.92 1757.41" stroke="#ECD8BD" stroke-width="5.73433" stroke-miterlimit="10"/>
<path d="M1635.41 1818.07L1652.43 1779.55L1672.59 1733.92" stroke="#ECD8BD" stroke-width="5.73433" stroke-miterlimit="10"/>
<path d="M1696.65 1758.76L1657.6 1774.54L1611.35 1793.24" stroke="#ECD8BD" stroke-width="5.73433" stroke-miterlimit="10"/>
<path d="M1671.24 1818.65L1655.45 1779.6L1636.76 1733.35" stroke="#ECD8BD" stroke-width="5.73433" stroke-miterlimit="10"/>
</g>
<g clip-path="url(#clip5_77_147)">
<path d="M873.996 987V1029.12V1079" stroke="#ECD8BD" stroke-width="5.73433" stroke-miterlimit="10"/>
<path d="M920 1033H877.881H828" stroke="#ECD8BD" stroke-width="5.73433" stroke-miterlimit="10"/>
<path d="M906.524 1000.48L876.742 1030.25L841.476 1065.52" stroke="#ECD8BD" stroke-width="5.73433" stroke-miterlimit="10"/>
<path d="M906.524 1065.52L876.742 1035.74L841.476 1000.48" stroke="#ECD8BD" stroke-width="5.73433" stroke-miterlimit="10"/>
<path d="M916.072 1051.59L877.552 1034.57L831.921 1014.41" stroke="#ECD8BD" stroke-width="5.73433" stroke-miterlimit="10"/>
<path d="M855.41 1075.07L872.434 1036.55L892.59 990.921" stroke="#ECD8BD" stroke-width="5.73433" stroke-miterlimit="10"/>
<path d="M916.645 1015.76L877.602 1031.54L831.354 1050.24" stroke="#ECD8BD" stroke-width="5.73433" stroke-miterlimit="10"/>
<path d="M891.235 1075.65L875.451 1036.6L856.765 990.355" stroke="#ECD8BD" stroke-width="5.73433" stroke-miterlimit="10"/>
</g>
<g clip-path="url(#clip6_77_147)">
<path d="M1054 2099V2141.12V2191" stroke="#ECD8BD" stroke-width="5.73433" stroke-miterlimit="10"/>
<path d="M1100 2145H1057.88H1008" stroke="#ECD8BD" stroke-width="5.73433" stroke-miterlimit="10"/>
<path d="M1086.52 2112.48L1056.74 2142.25L1021.48 2177.52" stroke="#ECD8BD" stroke-width="5.73433" stroke-miterlimit="10"/>
<path d="M1086.52 2177.52L1056.74 2147.74L1021.48 2112.48" stroke="#ECD8BD" stroke-width="5.73433" stroke-miterlimit="10"/>
<path d="M1096.07 2163.59L1057.55 2146.57L1011.92 2126.41" stroke="#ECD8BD" stroke-width="5.73433" stroke-miterlimit="10"/>
<path d="M1035.41 2187.07L1052.43 2148.55L1072.59 2102.92" stroke="#ECD8BD" stroke-width="5.73433" stroke-miterlimit="10"/>
<path d="M1096.65 2127.76L1057.6 2143.54L1011.35 2162.24" stroke="#ECD8BD" stroke-width="5.73433" stroke-miterlimit="10"/>
<path d="M1071.24 2187.65L1055.45 2148.6L1036.76 2102.35" stroke="#ECD8BD" stroke-width="5.73433" stroke-miterlimit="10"/>
</g>
<g clip-path="url(#clip7_77_147)">
<path d="M1868 2412V2454.12V2504" stroke="#ECD8BD" stroke-width="5.73433" stroke-miterlimit="10"/>
<path d="M1914 2458H1871.88H1822" stroke="#ECD8BD" stroke-width="5.73433" stroke-miterlimit="10"/>
<path d="M1900.52 2425.48L1870.74 2455.25L1835.48 2490.52" stroke="#ECD8BD" stroke-width="5.73433" stroke-miterlimit="10"/>
<path d="M1900.52 2490.52L1870.74 2460.74L1835.48 2425.48" stroke="#ECD8BD" stroke-width="5.73433" stroke-miterlimit="10"/>
<path d="M1910.07 2476.59L1871.55 2459.57L1825.92 2439.41" stroke="#ECD8BD" stroke-width="5.73433" stroke-miterlimit="10"/>
<path d="M1849.41 2500.07L1866.43 2461.55L1886.59 2415.92" stroke="#ECD8BD" stroke-width="5.73433" stroke-miterlimit="10"/>
<path d="M1910.65 2440.76L1871.6 2456.54L1825.35 2475.24" stroke="#ECD8BD" stroke-width="5.73433" stroke-miterlimit="10"/>
<path d="M1885.24 2500.65L1869.45 2461.6L1850.76 2415.35" stroke="#ECD8BD" stroke-width="5.73433" stroke-miterlimit="10"/>
</g>
<g clip-path="url(#clip8_77_147)">
<path d="M675.101 560.385L635.346 562.783L665.152 536.366C665.285 536.252 665.424 536.107 665.545 535.974C667.236 534.065 667.061 531.141 665.152 529.45C663.243 527.758 660.319 527.933 658.628 529.842L632.217 559.654L634.609 519.899C634.621 519.724 634.621 519.519 634.609 519.343C634.458 516.794 632.266 514.855 629.716 515.006C627.167 515.157 625.228 517.35 625.379 519.899L627.777 559.654L601.373 529.848C601.258 529.715 601.113 529.577 600.98 529.456C599.071 527.764 596.147 527.939 594.456 529.848C592.765 531.757 592.94 534.681 594.849 536.372L624.654 562.783L584.899 560.385C584.724 560.373 584.519 560.373 584.344 560.385C581.794 560.536 579.855 562.729 580.006 565.278C580.157 567.827 582.35 569.766 584.899 569.615L624.654 567.217L594.849 593.634C594.722 593.748 594.577 593.893 594.456 594.026C592.765 595.935 592.94 598.859 594.849 600.55C596.758 602.242 599.681 602.067 601.373 600.158L627.783 570.346L625.385 610.101C625.379 610.276 625.373 610.481 625.385 610.657C625.536 613.206 627.729 615.145 630.278 614.994C632.827 614.843 634.766 612.65 634.615 610.101L632.217 570.346L658.634 600.152C658.749 600.285 658.894 600.423 659.026 600.544C660.935 602.236 663.859 602.061 665.551 600.152C667.242 598.243 667.067 595.319 665.158 593.628L635.346 567.217L675.101 569.615C675.276 569.627 675.482 569.627 675.657 569.615C678.206 569.464 680.145 567.271 679.994 564.722C679.837 562.173 677.65 560.234 675.101 560.385Z" fill="#ECD8BD"/>
</g>
<g filter="url(#filter0_f_77_147)">
<path d="M774.113 2558.06C536.51 2526.06 354.455 2303.75 367.48 2061.51C380.505 1819.27 583.679 1648.83 821.282 1680.83C1058.88 1712.83 1240.94 1935.15 1227.91 2177.39C1214.89 2419.63 1011.72 2590.06 774.113 2558.06Z" fill="#ECD8BD" fill-opacity="0.15"/>
<path d="M815.254 1336.07C516.327 1295.81 286.4 1032.56 301.696 748.087C316.992 463.612 571.72 265.635 870.646 305.892C1169.57 346.15 1399.5 609.397 1384.2 893.871C1368.91 1178.35 1114.18 1376.32 815.254 1336.07Z" fill="#ECD8BD" fill-opacity="0.15"/>
<path d="M1740.15 2540.27C1611.31 2522.92 1513.27 2389.89 1521.16 2243.13C1529.05 2096.38 1639.89 1991.48 1768.72 2008.83C1897.56 2026.18 1995.6 2159.21 1987.71 2305.97C1979.82 2452.72 1868.98 2557.62 1740.15 2540.27Z" fill="#ECD8BD" fill-opacity="0.15"/>
<ellipse cx="1632.22" cy="1187.76" rx="352.025" ry="366.609" fill="#ECD8BD" fill-opacity="0.15"/>
</g>
<defs>
<filter id="filter0_f_77_147" x="0.975098" y="0.694824" width="2287.18" height="2861.23" filterUnits="userSpaceOnUse" color-interpolation-filters="sRGB">
<feFlood flood-opacity="0" result="BackgroundImageFix"/>
<feBlend mode="normal" in="SourceGraphic" in2="BackgroundImageFix" result="shape"/>
<feGaussianBlur stdDeviation="150" result="effect1_foregroundBlur_77_147"/>
</filter>
<clipPath id="clip0_77_147">
<rect width="100" height="100" fill="white" transform="translate(1444 1079)"/>
</clipPath>
<clipPath id="clip1_77_147">
<rect width="100" height="100" fill="white" transform="translate(1737 465)"/>
</clipPath>
<clipPath id="clip2_77_147">
<rect width="100" height="100" fill="white" transform="translate(354 2358)"/>
</clipPath>
<clipPath id="clip3_77_147">
<rect width="114" height="114" fill="white" transform="translate(523 1535)"/>
</clipPath>
<clipPath id="clip4_77_147">
<rect width="92.0001" height="92.0001" fill="white" transform="translate(1608 1730)"/>
</clipPath>
<clipPath id="clip5_77_147">
<rect width="92.0001" height="92.0001" fill="white" transform="translate(828 987)"/>
</clipPath>
<clipPath id="clip6_77_147">
<rect width="92.0001" height="92.0001" fill="white" transform="translate(1008 2099)"/>
</clipPath>
<clipPath id="clip7_77_147">
<rect width="92.0001" height="92.0001" fill="white" transform="translate(1822 2412)"/>
</clipPath>
<clipPath id="clip8_77_147">
<rect width="100" height="100" fill="white" transform="translate(580 515)"/>
</clipPath>
</defs>
</svg>
