<svg width="65" height="64" viewBox="0 0 65 64" fill="none" xmlns="http://www.w3.org/2000/svg">
<path d="M56.7093 42.1046C56.642 48.8452 51.1293 54.2539 44.3887 54.1906C37.7433 54.1226 32.3667 48.7506 32.3034 42.1046V41.4726H56.7093V42.1046ZM35.0434 53.0259C34.8767 53.7659 34.222 54.2946 33.4587 54.2986H14.52C13.7614 54.2946 13.1067 53.7659 12.94 53.0259L8.84069 34.2492C8.33002 31.9332 8.73669 29.5132 9.97336 27.4906H38.01C39.2107 29.4592 39.6307 31.8066 39.1833 34.0686L38.5107 34.0279H38.47C36.678 34.0232 34.958 34.7366 33.698 36.0052C33.626 36.0772 33.554 36.1546 33.4813 36.2352L33.414 36.3126C33.364 36.3666 33.3187 36.4206 33.274 36.4746L33.1974 36.5652C33.1567 36.6192 33.116 36.6692 33.084 36.7186L33.0074 36.8226C32.9714 36.8719 32.9354 36.9219 32.8947 36.9759L32.8227 37.0799C32.786 37.1339 32.7547 37.1879 32.7187 37.2466C32.696 37.2786 32.678 37.3099 32.6554 37.3419C32.6194 37.4046 32.5834 37.4679 32.5467 37.5359L32.506 37.6126C32.4567 37.7026 32.4114 37.7932 32.3667 37.8879L32.344 37.9379C32.308 38.0146 32.276 38.0912 32.24 38.1726C32.2267 38.2039 32.2127 38.2352 32.1994 38.2719C32.1767 38.3306 32.1494 38.3939 32.1314 38.4566C32.1133 38.4932 32.1 38.5332 32.0867 38.5739C32.0687 38.6326 32.0507 38.6872 32.028 38.7546C32.0187 38.7906 32.0054 38.8312 31.9914 38.8679C31.9734 38.9306 31.96 38.9852 31.942 39.0526C31.9327 39.0886 31.9194 39.1292 31.9147 39.1659C31.8967 39.2286 31.8834 39.2966 31.87 39.3599C31.8607 39.3959 31.852 39.4319 31.8474 39.4726C31.8294 39.5492 31.82 39.6259 31.8067 39.7026C31.8067 39.7252 31.7973 39.7526 31.7934 39.7752C31.7794 39.8746 31.766 39.9739 31.7567 40.0732H31.608C31.2194 40.0732 30.9127 40.3846 30.9127 40.7686V42.1046C30.9127 42.2219 30.9127 42.3439 30.9174 42.4659C30.9174 42.5066 30.9174 42.5472 30.9174 42.5879C30.9174 42.6646 30.9174 42.7459 30.926 42.8226C30.926 42.8719 30.9307 42.9219 30.9354 42.9672C30.9354 43.0392 30.944 43.1112 30.9487 43.1839C30.9487 43.2332 30.958 43.2832 30.962 43.3372C30.9667 43.3912 30.976 43.4726 30.9807 43.5406C30.9894 43.6079 30.994 43.6439 31.0027 43.6986C31.0074 43.7526 31.0167 43.8292 31.0254 43.8926C31.0347 43.9599 31.0394 44.0006 31.048 44.0552L31.0754 44.2446C31.084 44.3032 31.0934 44.3572 31.1067 44.4119C31.116 44.4659 31.1247 44.5379 31.1387 44.5966C31.1474 44.6599 31.1607 44.7052 31.17 44.7639C31.1834 44.8179 31.1927 44.8766 31.206 44.9446C31.2194 45.0119 31.2334 45.0572 31.2467 45.1112L31.2874 45.2919L31.328 45.4592C31.3414 45.5179 31.3594 45.5719 31.3734 45.6352C31.3914 45.6986 31.4047 45.7526 31.418 45.8019C31.4367 45.8519 31.4547 45.9192 31.4727 45.9739C31.486 46.0326 31.504 46.0866 31.522 46.1406C31.54 46.1952 31.558 46.2579 31.576 46.3126C31.5947 46.3712 31.6127 46.4252 31.6307 46.4792C31.6487 46.5332 31.6714 46.5919 31.6894 46.6466C31.7074 46.7006 31.73 46.7592 31.748 46.8132C31.7707 46.8679 31.7887 46.9219 31.8114 46.9806L31.874 47.1432C31.8967 47.1972 31.9194 47.2512 31.942 47.3052C31.9647 47.3599 31.9874 47.4139 32.01 47.4679C32.032 47.5226 32.0594 47.5766 32.082 47.6306L32.154 47.7932L32.2267 47.9512C32.2534 48.0052 32.2807 48.0592 32.308 48.1092C32.3347 48.1632 32.3574 48.2172 32.3847 48.2672C32.4114 48.3166 32.4387 48.3752 32.466 48.4252L32.5467 48.5786C32.5787 48.6326 32.6054 48.6826 32.6374 48.7366L32.7187 48.8859L32.8134 49.0439L32.8994 49.1879C32.9307 49.2426 32.962 49.2919 32.9987 49.3459C33.03 49.4006 33.0574 49.4412 33.0887 49.4859L33.1927 49.6439L33.2873 49.7839C33.3187 49.8339 33.3554 49.8879 33.3913 49.9379C33.4274 49.9872 33.4547 50.0279 33.4907 50.0732C33.5174 50.1179 33.5627 50.1726 33.6033 50.2219C33.6487 50.2719 33.6714 50.3126 33.7073 50.3572C33.7387 50.3979 33.7794 50.4566 33.82 50.5066C33.8607 50.5559 33.888 50.5879 33.924 50.6326L34.0367 50.7819C34.0727 50.8226 34.1047 50.8632 34.1407 50.8992C34.2267 50.9986 34.312 51.0979 34.398 51.1926L34.506 51.3099C34.5427 51.3506 34.5874 51.3959 34.6194 51.4366C34.6553 51.4819 34.7047 51.5266 34.7453 51.5719L34.8627 51.6846L34.994 51.8199L35.116 51.9379C35.1607 51.9739 35.1973 52.0146 35.238 52.0506L35.0434 53.0259ZM17.3687 23.1519H30.61C33.0434 23.2246 35.3374 24.2899 36.9713 26.0999H11.0074C12.6374 24.2899 14.9354 23.2246 17.3687 23.1519ZM16.958 19.0666C16.958 18.4252 17.4767 17.9059 18.118 17.9059H29.8654C30.506 17.9059 31.0254 18.4252 31.0254 19.0666V20.6012C31.0254 21.2426 30.506 21.7612 29.8654 21.7612H18.118C17.4767 21.7612 16.958 21.2426 16.958 20.6012V19.0666ZM22.4474 10.3572H25.5354V16.5152H22.4474V10.3572ZM20.0687 8.4339C20.0687 8.14056 20.308 7.90123 20.6014 7.90123H37.5674C37.8607 7.90123 38.1 8.14056 38.1 8.4339C38.1 8.7279 37.8607 8.96723 37.5674 8.96723H20.6014C20.308 8.96256 20.0687 8.7279 20.0687 8.4339ZM34.962 11.7299V10.3572H37.0254V11.7299H34.962ZM54.2353 34.6192L55.9013 34.0279V36.5652C55.8967 38.5019 54.326 40.0732 52.3887 40.0772H33.1607L33.17 40.0186L33.1834 39.9286C33.1927 39.8746 33.2014 39.8246 33.2107 39.7752C33.2154 39.7432 33.2194 39.7119 33.224 39.6846C33.238 39.6306 33.2467 39.5672 33.2647 39.5179C33.2694 39.4952 33.274 39.4726 33.278 39.4452C33.2967 39.3686 33.3187 39.2919 33.346 39.2152L33.3554 39.1792C33.3734 39.1159 33.396 39.0526 33.418 38.9852C33.4274 38.9626 33.4367 38.9352 33.4454 38.9086C33.468 38.8586 33.486 38.8092 33.504 38.7592L33.54 38.6732C33.5627 38.6286 33.5807 38.5786 33.6033 38.5332L33.644 38.4526C33.6667 38.4026 33.6894 38.3532 33.716 38.3032C33.73 38.2806 33.7387 38.2579 33.7527 38.2352C33.7934 38.1679 33.8293 38.0959 33.8654 38.0279C33.87 38.0186 33.874 38.0146 33.8787 38.0052C33.9193 37.9419 33.9554 37.8832 33.996 37.8199L34.0414 37.7526C34.0727 37.7072 34.1047 37.6619 34.136 37.6219L34.1947 37.5446C34.222 37.5039 34.2534 37.4632 34.2894 37.4232L34.348 37.3506C34.38 37.3099 34.4207 37.2652 34.4567 37.2246C34.4747 37.2059 34.4927 37.1839 34.5107 37.1659C34.5653 37.1066 34.624 37.0439 34.678 36.9852C34.8673 36.7999 35.066 36.6286 35.278 36.4706C36.19 35.7886 37.3053 35.4186 38.4433 35.4186L39.6894 35.4952L45.5854 35.8519C48.5247 36.0279 51.468 35.6126 54.2353 34.6192ZM57.4047 40.0772H55.802C56.7547 39.1566 57.292 37.8879 57.2873 36.5652V33.0439C57.292 32.6599 56.9807 32.3486 56.5967 32.3486C56.52 32.3486 56.4387 32.3619 56.362 32.3892L53.7747 33.3146C51.1747 34.2399 48.416 34.6326 45.6667 34.4612L40.5694 34.1546C41.102 31.1879 40.348 28.1272 38.484 25.7526C36.8993 23.7119 34.5967 22.3346 32.046 21.9059C32.2807 21.5086 32.4067 21.0619 32.4067 20.6059V19.0666C32.4067 17.6579 31.2647 16.5152 29.856 16.5152H26.926V10.3572H33.576V12.4252C33.576 12.8092 33.8834 13.1206 34.2674 13.1206H37.716C38.1 13.1206 38.4114 12.8092 38.4114 12.4252V10.1546C39.364 9.68923 39.7567 8.5379 39.2873 7.58523C38.9667 6.92656 38.2987 6.51123 37.5674 6.51123H20.6014C19.54 6.51123 18.678 7.36856 18.678 8.4339C18.678 9.49523 19.54 10.3572 20.6014 10.3572H21.0574V16.5152H18.118C16.7094 16.5152 15.5674 17.6579 15.5674 19.0666V20.6012C15.5674 21.0572 15.6894 21.5086 15.924 21.9012C13.3734 22.3346 11.0754 23.7072 9.48602 25.7526C9.32336 25.9646 9.17002 26.1812 9.02536 26.4026V26.4119C7.42736 28.7999 6.87669 31.7392 7.49536 34.5472L11.5807 53.3239C11.888 54.7006 13.1114 55.6846 14.52 55.6939H33.4587C34.872 55.6846 36.0954 54.7006 36.4027 53.3239L36.4613 53.0526C42.5107 57.4999 51.0167 56.1952 55.4633 50.1452C57.1747 47.8159 58.1 44.9986 58.1 42.1046V40.7726C58.1 40.3892 57.7887 40.0772 57.4047 40.0772Z" fill="white"/>
<path d="M27.5218 45.22C26.7632 46.4387 25.4272 47.1747 23.9912 47.1613C21.6531 47.166 19.7611 45.274 19.7611 42.9353C19.7565 42.308 19.8965 41.6846 20.1678 41.1206L23.9105 33.2426L27.7298 40.6326C28.4565 42.1633 28.3752 43.8833 27.5218 45.22ZM28.9805 40.0006L24.4745 31.3053C24.2938 30.9673 23.8738 30.836 23.5352 31.012C23.3772 31.098 23.2558 31.238 23.2012 31.4093L23.1018 31.712L18.9171 40.52C17.5805 43.3146 18.7591 46.6647 21.5538 48.0007C24.1092 49.2247 27.1698 48.3533 28.7005 45.9647C29.8112 44.2173 29.9192 41.9966 28.9985 40.0233L28.9805 40.0006Z" fill="white"/>
</svg>
