<svg width="2303" height="1211" viewBox="0 0 2303 1211" fill="none" xmlns="http://www.w3.org/2000/svg">
<g clip-path="url(#clip0_193_312)">
<path d="M1940.65 595.622L1729.38 421.491L1677.44 682.339L1469.3 507.177L1417.36 768.026L1210.13 592.566L1158.18 853.414" stroke="#ECD8BD" stroke-width="30" stroke-miterlimit="10"/>
</g>
<g clip-path="url(#clip1_193_312)">
<path d="M1039.16 737.323L999.407 739.721L1029.21 713.304C1029.35 713.189 1029.48 713.044 1029.61 712.912C1031.3 711.003 1031.12 708.079 1029.21 706.387C1027.3 704.696 1024.38 704.871 1022.69 706.78L996.278 736.592L998.67 696.837C998.682 696.662 998.682 696.456 998.67 696.281C998.519 693.732 996.326 691.793 993.777 691.944C991.228 692.095 989.289 694.288 989.44 696.837L991.838 736.592L965.433 706.786C965.319 706.653 965.174 706.514 965.041 706.393C963.132 704.702 960.208 704.877 958.517 706.786C956.825 708.695 957 711.619 958.909 713.31L988.715 739.721L948.96 737.323C948.785 737.31 948.579 737.31 948.404 737.323C945.855 737.474 943.916 739.666 944.067 742.216C944.218 744.765 946.411 746.704 948.96 746.553L988.715 744.155L958.909 770.571C958.782 770.686 958.637 770.831 958.517 770.964C956.825 772.873 957 775.797 958.909 777.488C960.818 779.18 963.742 779.004 965.433 777.095L991.844 747.284L989.446 787.039C989.44 787.214 989.434 787.419 989.446 787.594C989.597 790.144 991.789 792.083 994.339 791.932C996.888 791.781 998.827 789.588 998.676 787.039L996.278 747.284L1022.69 777.089C1022.81 777.222 1022.95 777.361 1023.09 777.482C1025 779.173 1027.92 778.998 1029.61 777.089C1031.3 775.18 1031.13 772.257 1029.22 770.565L999.407 744.155L1039.16 746.553C1039.34 746.565 1039.54 746.565 1039.72 746.553C1042.27 746.402 1044.21 744.209 1044.05 741.66C1043.9 739.111 1041.71 737.172 1039.16 737.323Z" fill="#ECD8BD"/>
</g>
<g clip-path="url(#clip2_193_312)">
<path d="M1384.06 238.938V281.057V330.938" stroke="#ECD8BD" stroke-width="5.73433" stroke-miterlimit="10"/>
<path d="M1430.06 284.935H1387.94H1338.06" stroke="#ECD8BD" stroke-width="5.73433" stroke-miterlimit="10"/>
<path d="M1416.58 252.414L1386.8 282.189L1351.54 317.462" stroke="#ECD8BD" stroke-width="5.73433" stroke-miterlimit="10"/>
<path d="M1416.58 317.462L1386.8 287.68L1351.54 252.414" stroke="#ECD8BD" stroke-width="5.73433" stroke-miterlimit="10"/>
<path d="M1426.13 303.528L1387.61 286.504L1341.98 266.348" stroke="#ECD8BD" stroke-width="5.73433" stroke-miterlimit="10"/>
<path d="M1365.47 327.01L1382.49 288.49L1402.65 242.859" stroke="#ECD8BD" stroke-width="5.73433" stroke-miterlimit="10"/>
<path d="M1426.71 267.703L1387.66 283.479L1341.42 302.173" stroke="#ECD8BD" stroke-width="5.73433" stroke-miterlimit="10"/>
<path d="M1401.3 327.583L1385.51 288.54L1366.83 242.292" stroke="#ECD8BD" stroke-width="5.73433" stroke-miterlimit="10"/>
</g>
<g clip-path="url(#clip3_193_312)">
<path d="M1895.06 712.938V755.057V804.938" stroke="#ECD8BD" stroke-width="5.73433" stroke-miterlimit="10"/>
<path d="M1941.06 758.935H1898.94H1849.06" stroke="#ECD8BD" stroke-width="5.73433" stroke-miterlimit="10"/>
<path d="M1927.58 726.414L1897.8 756.189L1862.54 791.462" stroke="#ECD8BD" stroke-width="5.73433" stroke-miterlimit="10"/>
<path d="M1927.58 791.462L1897.8 761.68L1862.54 726.414" stroke="#ECD8BD" stroke-width="5.73433" stroke-miterlimit="10"/>
<path d="M1937.13 777.528L1898.61 760.504L1852.98 740.348" stroke="#ECD8BD" stroke-width="5.73433" stroke-miterlimit="10"/>
<path d="M1876.47 801.01L1893.49 762.49L1913.65 716.859" stroke="#ECD8BD" stroke-width="5.73433" stroke-miterlimit="10"/>
<path d="M1937.71 741.703L1898.66 757.479L1852.42 776.173" stroke="#ECD8BD" stroke-width="5.73433" stroke-miterlimit="10"/>
<path d="M1912.3 801.583L1896.51 762.54L1877.83 716.292" stroke="#ECD8BD" stroke-width="5.73433" stroke-miterlimit="10"/>
</g>
<g clip-path="url(#clip4_193_312)">
<path d="M1130.67 352.045L930.808 179.101L887.15 432.276L690.181 258.378L646.523 511.554L450.39 337.38L406.732 590.555" stroke="#ECD8BD" stroke-width="30" stroke-miterlimit="10"/>
</g>
<g filter="url(#filter0_f_193_312)">
<path d="M702.517 909.49C468.063 899.003 288.419 826.142 301.272 746.751C314.125 667.359 514.607 611.502 749.061 621.989C983.515 632.476 1163.16 705.337 1150.31 784.728C1137.45 864.12 936.971 919.977 702.517 909.49Z" fill="#ECD8BD" fill-opacity="0.15"/>
<path d="M1738 857.451C1610.87 851.765 1514.13 808.165 1521.91 760.069C1529.7 711.973 1639.07 677.593 1766.2 683.279C1893.33 688.966 1990.07 732.565 1982.28 780.662C1974.5 828.758 1865.13 863.138 1738 857.451Z" fill="#ECD8BD" fill-opacity="0.15"/>
<ellipse cx="1654.7" cy="420.686" rx="347.361" ry="120.152" fill="#ECD8BD" fill-opacity="0.15"/>
</g>
<g clip-path="url(#clip5_193_312)">
<path d="M652.162 636.323L612.407 638.721L642.212 612.304C642.345 612.189 642.484 612.044 642.605 611.912C644.297 610.003 644.121 607.079 642.212 605.387C640.304 603.696 637.38 603.871 635.688 605.78L609.278 635.592L611.67 595.837C611.682 595.662 611.682 595.456 611.67 595.281C611.519 592.732 609.326 590.793 606.777 590.944C604.228 591.095 602.289 593.288 602.44 595.837L604.838 635.592L578.433 605.786C578.319 605.653 578.174 605.514 578.041 605.393C576.132 603.702 573.208 603.877 571.517 605.786C569.825 607.695 570 610.619 571.909 612.31L601.715 638.721L561.96 636.323C561.785 636.31 561.579 636.31 561.404 636.323C558.855 636.474 556.916 638.666 557.067 641.216C557.218 643.765 559.411 645.704 561.96 645.553L601.715 643.155L571.909 669.571C571.782 669.686 571.637 669.831 571.517 669.964C569.825 671.873 570 674.797 571.909 676.488C573.818 678.18 576.742 678.004 578.433 676.095L604.844 646.284L602.446 686.039C602.44 686.214 602.434 686.419 602.446 686.594C602.597 689.144 604.789 691.083 607.339 690.932C609.888 690.781 611.827 688.588 611.676 686.039L609.278 646.284L635.694 676.089C635.809 676.222 635.954 676.361 636.087 676.482C637.996 678.173 640.92 677.998 642.611 676.089C644.303 674.18 644.127 671.257 642.218 669.565L612.407 643.155L652.162 645.553C652.337 645.565 652.542 645.565 652.717 645.553C655.267 645.402 657.206 643.209 657.055 640.66C656.898 638.111 654.711 636.172 652.162 636.323Z" fill="#ECD8BD"/>
</g>
<defs>
<filter id="filter0_f_193_312" x="0.623047" y="0.533691" width="2301.44" height="1210.22" filterUnits="userSpaceOnUse" color-interpolation-filters="sRGB">
<feFlood flood-opacity="0" result="BackgroundImageFix"/>
<feBlend mode="normal" in="SourceGraphic" in2="BackgroundImageFix" result="shape"/>
<feGaussianBlur stdDeviation="150" result="effect1_foregroundBlur_193_312"/>
</filter>
<clipPath id="clip0_193_312">
<rect width="867.771" height="363.174" fill="white" transform="matrix(0.949781 -0.312915 0.348518 0.937302 1031.67 513.187)"/>
</clipPath>
<clipPath id="clip1_193_312">
<rect width="100" height="100" fill="white" transform="translate(944.061 691.938)"/>
</clipPath>
<clipPath id="clip2_193_312">
<rect width="92.0001" height="92.0001" fill="white" transform="translate(1338.06 238.938)"/>
</clipPath>
<clipPath id="clip3_193_312">
<rect width="92.0001" height="92.0001" fill="white" transform="translate(1849.06 712.938)"/>
</clipPath>
<clipPath id="clip4_193_312">
<rect width="802.862" height="355.809" fill="white" transform="matrix(0.949781 -0.312915 0.348518 0.937302 282.791 257.228)"/>
</clipPath>
<clipPath id="clip5_193_312">
<rect width="100" height="100" fill="white" transform="translate(557.061 590.938)"/>
</clipPath>
</defs>
</svg>
