<svg width="65" height="64" viewBox="0 0 65 64" fill="none" xmlns="http://www.w3.org/2000/svg">
<path d="M33.7902 49.5774C33.7535 50.1594 33.2948 50.618 32.7402 50.618H25.1082C24.5535 50.618 24.0949 50.1594 24.0582 49.5774L21.9495 15.8094H35.8995L33.7902 49.5774ZM31.5129 56.2907H26.3355C25.7402 56.2907 25.2535 55.782 25.2535 55.15V51.9H32.5902V55.15C32.5948 55.782 32.1082 56.2907 31.5129 56.2907ZM21.9082 12.1094H35.9402V14.5274H21.9082V12.1094ZM37.2175 11.4727C37.2175 11.118 36.9308 10.832 36.5808 10.832H21.2675C20.9129 10.832 20.6309 11.118 20.6309 11.4727V15.168C20.6309 15.1727 20.6355 15.182 20.6355 15.1867C20.6355 15.1954 20.6309 15.2 20.6309 15.2094L22.7809 49.6547C22.8309 50.4907 23.3082 51.2 23.9769 51.5867V55.15C23.9769 56.4867 25.0309 57.5727 26.3355 57.5727H31.5129C32.8128 57.5727 33.8722 56.4867 33.8722 55.15V51.5867C34.5448 51.2 35.0128 50.4907 35.0675 49.6547L37.2175 15.2094C37.2175 15.2 37.2175 15.1954 37.2175 15.1867C37.2175 15.182 37.2175 15.1727 37.2175 15.168V11.4727Z" fill="white"/>
<path d="M17.5267 56.3227H8.24001V36.0367H12.2447V49.0634C12.2447 49.4181 12.5267 49.7047 12.8807 49.7047C13.2353 49.7047 13.522 49.4181 13.522 49.0634V36.0367H17.5267V56.3227ZM10.0447 25.0181C10.0447 24.6047 10.3807 24.2681 10.79 24.2681H14.972C15.3807 24.2681 15.7173 24.6047 15.7173 25.0181V34.7594H10.0447V25.0181ZM14.972 22.9907H10.79C9.67667 22.9907 8.76734 23.9001 8.76734 25.0181V34.7594H7.59934C7.24467 34.7594 6.95801 35.0454 6.95801 35.4001V56.9634C6.95801 57.3134 7.24467 57.6001 7.59934 57.6001H18.1673C18.5173 57.6001 18.8033 57.3134 18.8033 56.9634V35.4001C18.8033 35.0454 18.5173 34.7594 18.1673 34.7594H16.9947V25.0181C16.9947 23.9001 16.0853 22.9907 14.972 22.9907Z" fill="white"/>
<path d="M48.9082 48.3907C45.9856 48.3907 43.6129 44.6867 43.6129 40.132C43.6129 35.5774 45.9856 31.868 48.9082 31.868C51.8269 31.868 54.2036 35.5774 54.2036 40.132C54.2036 44.6867 51.8269 48.3907 48.9082 48.3907ZM48.9082 30.718C45.3536 30.718 42.4629 34.9407 42.4629 40.132C42.4629 45.3227 45.3536 49.5454 48.9082 49.5454C52.4629 49.5454 55.3582 45.3227 55.3582 40.132C55.3582 34.9407 52.4629 30.718 48.9082 30.718Z" fill="white"/>
<path d="M53.4351 18.3452V22.3546H44.3805V18.3452C44.3805 17.5092 45.0625 16.8319 45.8945 16.8319H51.9218C52.7531 16.8319 53.4351 17.5092 53.4351 18.3452ZM56.9031 26.2046V54.9452C56.9031 55.7406 56.2578 56.3866 55.4671 56.3866H42.3491C41.5531 56.3866 40.9078 55.7406 40.9078 54.9452V26.2046C40.9078 24.7132 42.1218 23.5046 43.6078 23.5046H54.2031C55.6945 23.5046 56.9031 24.7132 56.9031 26.2046ZM47.6265 7.5499H50.2398C51.1125 7.5499 51.8171 8.21324 51.8171 9.0319V15.6819H46.0445V9.0319C46.0445 8.21324 46.7531 7.5499 47.6265 7.5499ZM50.2398 6.3999H47.6265C46.1171 6.3999 44.8898 7.5819 44.8898 9.0319V15.8819C43.9218 16.2772 43.2305 17.2272 43.2305 18.3406V22.3679C41.2851 22.5592 39.7578 24.2046 39.7578 26.2046V54.9452C39.7578 56.3772 40.9171 57.5366 42.3491 57.5366H55.4671C56.8945 57.5366 58.0578 56.3772 58.0578 54.9452V26.2046C58.0578 24.2046 56.5305 22.5632 54.5851 22.3679V18.3452C54.5851 17.2499 53.9171 16.3046 52.9718 15.8952V9.0319C52.9718 7.5819 51.7445 6.3999 50.2398 6.3999Z" fill="white"/>
</svg>
