<svg width="1413" height="2064" viewBox="0 0 1413 2064" fill="none" xmlns="http://www.w3.org/2000/svg">
<g clip-path="url(#clip0_181_251)">
<path d="M876.996 173V215.119V265" stroke="#C28568" stroke-width="5.73433" stroke-miterlimit="10"/>
<path d="M923 218.996H880.881H831" stroke="#C28568" stroke-width="5.73433" stroke-miterlimit="10"/>
<path d="M909.524 186.476L879.742 216.251L844.476 251.524" stroke="#C28568" stroke-width="5.73433" stroke-miterlimit="10"/>
<path d="M909.524 251.524L879.742 221.742L844.476 186.476" stroke="#C28568" stroke-width="5.73433" stroke-miterlimit="10"/>
<path d="M919.072 237.59L880.552 220.566L834.921 200.41" stroke="#C28568" stroke-width="5.73433" stroke-miterlimit="10"/>
<path d="M858.41 261.072L875.434 222.552L895.59 176.921" stroke="#C28568" stroke-width="5.73433" stroke-miterlimit="10"/>
<path d="M919.645 201.765L880.602 217.541L834.354 236.235" stroke="#C28568" stroke-width="5.73433" stroke-miterlimit="10"/>
<path d="M894.235 261.646L878.451 222.602L859.765 176.355" stroke="#C28568" stroke-width="5.73433" stroke-miterlimit="10"/>
</g>
<g clip-path="url(#clip1_181_251)">
<path d="M1408.1 118.385L1368.35 120.783L1398.15 94.3665C1398.28 94.2517 1398.42 94.1067 1398.54 93.9738C1400.24 92.0649 1400.06 89.1411 1398.15 87.4497C1396.24 85.7583 1393.32 85.9334 1391.63 87.8424L1365.22 117.654L1367.61 77.8991C1367.62 77.724 1367.62 77.5186 1367.61 77.3434C1367.46 74.7941 1365.27 72.855 1362.72 73.0061C1360.17 73.1571 1358.23 75.3499 1358.38 77.8991L1360.78 117.654L1334.37 87.8484C1334.26 87.7155 1334.11 87.5766 1333.98 87.4557C1332.07 85.7643 1329.15 85.9395 1327.46 87.8484C1325.76 89.7573 1325.94 92.6811 1327.85 94.3725L1357.65 120.783L1317.9 118.385C1317.72 118.373 1317.52 118.373 1317.34 118.385C1314.79 118.536 1312.86 120.729 1313.01 123.278C1313.16 125.827 1315.35 127.766 1317.9 127.615L1357.65 125.217L1327.85 151.634C1327.72 151.748 1327.58 151.893 1327.46 152.026C1325.76 153.935 1325.94 156.859 1327.85 158.55C1329.76 160.242 1332.68 160.067 1334.37 158.158L1360.78 128.346L1358.39 168.101C1358.38 168.276 1358.37 168.481 1358.39 168.657C1358.54 171.206 1360.73 173.145 1363.28 172.994C1365.83 172.843 1367.77 170.65 1367.62 168.101L1365.22 128.346L1391.63 158.152C1391.75 158.285 1391.89 158.423 1392.03 158.544C1393.94 160.236 1396.86 160.061 1398.55 158.152C1400.24 156.243 1400.07 153.319 1398.16 151.628L1368.35 125.217L1408.1 127.615C1408.28 127.627 1408.48 127.627 1408.66 127.615C1411.21 127.464 1413.15 125.271 1412.99 122.722C1412.84 120.173 1410.65 118.234 1408.1 118.385Z" fill="#C28568"/>
</g>
<g clip-path="url(#clip2_181_251)">
<path d="M95.1006 45.3848L55.3459 47.783L85.1514 21.3665C85.2843 21.2517 85.4232 21.1067 85.544 20.9738C87.2355 19.0649 87.0603 16.1411 85.1514 14.4497C83.2425 12.7583 80.3187 12.9334 78.6273 14.8424L52.2168 44.6539L54.6089 4.89914C54.621 4.72395 54.621 4.51856 54.6089 4.34338C54.4579 1.79415 52.2651 -0.144963 49.7159 0.00605783C47.1666 0.157079 45.2275 2.3499 45.3785 4.89914L47.7767 44.6539L21.3723 14.8484C21.2575 14.7155 21.1125 14.5766 20.9796 14.4557C19.0707 12.7643 16.1469 12.9395 14.4555 14.8484C12.7641 16.7573 12.9392 19.6811 14.8481 21.3725L44.6536 47.783L4.89889 45.3848C4.72371 45.3727 4.51832 45.3727 4.34313 45.3848C1.7939 45.5358 -0.145207 47.7287 0.00581369 50.2779C0.156835 52.8271 2.34966 54.7662 4.89889 54.6152L44.6536 52.217L14.8481 78.6336C14.7213 78.7484 14.5763 78.8933 14.4555 79.0262C12.7641 80.9351 12.9392 83.8589 14.8481 85.5503C16.7571 87.2418 19.6808 87.0666 21.3723 85.1577L47.7828 55.3462L45.3846 95.1009C45.3785 95.2761 45.3725 95.4815 45.3846 95.6567C45.5356 98.2059 47.7284 100.145 50.2777 99.994C52.8269 99.843 54.766 97.6501 54.615 95.1009L52.2168 55.3462L78.6333 85.1516C78.7481 85.2845 78.8931 85.4235 79.026 85.5443C80.9349 87.2357 83.8587 87.0605 85.5501 85.1516C87.2415 83.2427 87.0663 80.319 85.1574 78.6275L55.3459 52.217L95.1006 54.6152C95.2758 54.6273 95.4812 54.6273 95.6564 54.6152C98.2056 54.4642 100.145 52.2714 99.9937 49.7221C99.8367 47.1729 97.6499 45.2338 95.1006 45.3848Z" fill="#C28568"/>
</g>
<g clip-path="url(#clip3_181_251)">
<path d="M115.415 1085.74L70.0947 1088.47L104.073 1058.36C104.224 1058.23 104.383 1058.06 104.521 1057.91C106.449 1055.73 106.249 1052.4 104.073 1050.47C101.897 1048.54 98.5637 1048.74 96.6355 1050.92L66.5274 1084.91L69.2545 1039.59C69.2683 1039.39 69.2683 1039.15 69.2545 1038.95C69.0824 1036.05 66.5825 1033.83 63.6764 1034.01C60.7703 1034.18 58.5597 1036.68 58.7319 1039.59L61.4658 1084.91L31.3647 1050.93C31.2339 1050.78 31.0686 1050.62 30.9171 1050.48C28.7409 1048.55 25.4078 1048.75 23.4796 1050.93C21.5514 1053.1 21.7511 1056.44 23.9272 1058.36L57.9055 1088.47L12.5851 1085.74C12.3854 1085.72 12.1512 1085.72 11.9515 1085.74C9.04539 1085.91 6.83481 1088.41 7.00697 1091.32C7.17913 1094.22 9.67895 1096.43 12.5851 1096.26L57.9055 1093.53L23.9272 1123.64C23.7826 1123.77 23.6173 1123.94 23.4796 1124.09C21.5514 1126.27 21.7511 1129.6 23.9272 1131.53C26.1034 1133.46 29.4365 1133.26 31.3647 1131.08L61.4727 1097.09L58.7388 1142.42C58.7319 1142.61 58.725 1142.85 58.7388 1143.05C58.9109 1145.95 61.4107 1148.17 64.3169 1147.99C67.223 1147.82 69.4336 1145.32 69.2614 1142.42L66.5274 1097.09L96.6423 1131.07C96.7732 1131.22 96.9385 1131.38 97.09 1131.52C99.2661 1133.45 102.599 1133.25 104.527 1131.07C106.456 1128.9 106.256 1125.56 104.08 1123.64L70.0947 1093.53L115.415 1096.26C115.615 1096.28 115.849 1096.28 116.049 1096.26C118.955 1096.09 121.165 1093.59 120.993 1090.68C120.814 1087.78 118.321 1085.57 115.415 1085.74Z" fill="#C28568"/>
</g>
<g clip-path="url(#clip4_181_251)">
<path d="M1205 878V920.119V970" stroke="#C28568" stroke-width="5.73433" stroke-miterlimit="10"/>
<path d="M1251 923.997H1208.88H1159" stroke="#C28568" stroke-width="5.73433" stroke-miterlimit="10"/>
<path d="M1237.52 891.476L1207.74 921.251L1172.48 956.524" stroke="#C28568" stroke-width="5.73433" stroke-miterlimit="10"/>
<path d="M1237.52 956.524L1207.74 926.742L1172.48 891.476" stroke="#C28568" stroke-width="5.73433" stroke-miterlimit="10"/>
<path d="M1247.07 942.59L1208.55 925.566L1162.92 905.41" stroke="#C28568" stroke-width="5.73433" stroke-miterlimit="10"/>
<path d="M1186.41 966.072L1203.43 927.552L1223.59 881.921" stroke="#C28568" stroke-width="5.73433" stroke-miterlimit="10"/>
<path d="M1247.65 906.765L1208.6 922.541L1162.35 941.235" stroke="#C28568" stroke-width="5.73433" stroke-miterlimit="10"/>
<path d="M1222.24 966.645L1206.45 927.602L1187.76 881.354" stroke="#C28568" stroke-width="5.73433" stroke-miterlimit="10"/>
</g>
<g clip-path="url(#clip5_181_251)">
<path d="M509.996 1148V1190.12V1240" stroke="#C28568" stroke-width="5.73433" stroke-miterlimit="10"/>
<path d="M556 1194H513.881H464" stroke="#C28568" stroke-width="5.73433" stroke-miterlimit="10"/>
<path d="M542.524 1161.48L512.742 1191.25L477.476 1226.52" stroke="#C28568" stroke-width="5.73433" stroke-miterlimit="10"/>
<path d="M542.524 1226.52L512.742 1196.74L477.476 1161.48" stroke="#C28568" stroke-width="5.73433" stroke-miterlimit="10"/>
<path d="M552.072 1212.59L513.552 1195.57L467.921 1175.41" stroke="#C28568" stroke-width="5.73433" stroke-miterlimit="10"/>
<path d="M491.41 1236.07L508.434 1197.55L528.59 1151.92" stroke="#C28568" stroke-width="5.73433" stroke-miterlimit="10"/>
<path d="M552.645 1176.76L513.602 1192.54L467.354 1211.24" stroke="#C28568" stroke-width="5.73433" stroke-miterlimit="10"/>
<path d="M527.235 1236.65L511.451 1197.6L492.765 1151.35" stroke="#C28568" stroke-width="5.73433" stroke-miterlimit="10"/>
</g>
<g clip-path="url(#clip6_181_251)">
<path d="M1284 1972V2014.12V2064" stroke="#C28568" stroke-width="5.73433" stroke-miterlimit="10"/>
<path d="M1330 2018H1287.88H1238" stroke="#C28568" stroke-width="5.73433" stroke-miterlimit="10"/>
<path d="M1316.52 1985.48L1286.74 2015.25L1251.48 2050.52" stroke="#C28568" stroke-width="5.73433" stroke-miterlimit="10"/>
<path d="M1316.52 2050.52L1286.74 2020.74L1251.48 1985.48" stroke="#C28568" stroke-width="5.73433" stroke-miterlimit="10"/>
<path d="M1326.07 2036.59L1287.55 2019.57L1241.92 1999.41" stroke="#C28568" stroke-width="5.73433" stroke-miterlimit="10"/>
<path d="M1265.41 2060.07L1282.43 2021.55L1302.59 1975.92" stroke="#C28568" stroke-width="5.73433" stroke-miterlimit="10"/>
<path d="M1326.65 2000.76L1287.6 2016.54L1241.35 2035.24" stroke="#C28568" stroke-width="5.73433" stroke-miterlimit="10"/>
<path d="M1301.24 2060.65L1285.45 2021.6L1266.76 1975.35" stroke="#C28568" stroke-width="5.73433" stroke-miterlimit="10"/>
</g>
<g clip-path="url(#clip7_181_251)">
<path d="M432.101 1839.38L392.346 1841.78L422.152 1815.37C422.285 1815.25 422.424 1815.11 422.545 1814.97C424.236 1813.06 424.061 1810.14 422.152 1808.45C420.243 1806.76 417.319 1806.93 415.628 1808.84L389.217 1838.65L391.609 1798.9C391.621 1798.72 391.621 1798.52 391.609 1798.34C391.458 1795.79 389.266 1793.86 386.716 1794.01C384.167 1794.16 382.228 1796.35 382.379 1798.9L384.777 1838.65L358.373 1808.85C358.258 1808.72 358.113 1808.58 357.98 1808.46C356.071 1806.76 353.147 1806.94 351.456 1808.85C349.765 1810.76 349.94 1813.68 351.849 1815.37L381.654 1841.78L341.899 1839.38C341.724 1839.37 341.519 1839.37 341.344 1839.38C338.794 1839.54 336.855 1841.73 337.006 1844.28C337.157 1846.83 339.35 1848.77 341.899 1848.62L381.654 1846.22L351.849 1872.63C351.722 1872.75 351.577 1872.89 351.456 1873.03C349.765 1874.94 349.94 1877.86 351.849 1879.55C353.758 1881.24 356.681 1881.07 358.373 1879.16L384.783 1849.35L382.385 1889.1C382.379 1889.28 382.373 1889.48 382.385 1889.66C382.536 1892.21 384.729 1894.14 387.278 1893.99C389.827 1893.84 391.766 1891.65 391.615 1889.1L389.217 1849.35L415.634 1879.15C415.749 1879.28 415.894 1879.42 416.026 1879.54C417.935 1881.24 420.859 1881.06 422.551 1879.15C424.242 1877.24 424.067 1874.32 422.158 1872.63L392.346 1846.22L432.101 1848.62C432.276 1848.63 432.482 1848.63 432.657 1848.62C435.206 1848.46 437.145 1846.27 436.994 1843.72C436.837 1841.17 434.65 1839.23 432.101 1839.38Z" fill="#C28568"/>
</g>
<g clip-path="url(#clip8_181_251)">
<path d="M677.514 984.528C677.912 984.095 678.609 984.017 679.09 984.388L695.263 996.855C695.725 997.212 695.796 997.851 695.382 998.302C694.984 998.734 694.287 998.813 693.806 998.442L677.633 985.974C677.171 985.617 677.117 984.96 677.514 984.528Z" stroke="#C28568" stroke-miterlimit="10"/>
<path d="M691.726 964.942C692.074 964.563 692.66 964.461 693.131 964.701L711.471 974.345C712 974.629 712.158 975.244 711.855 975.717C711.551 976.191 710.862 976.368 710.353 976.099L692.012 966.456C691.484 966.172 691.325 965.557 691.629 965.083C691.643 965.032 691.693 964.978 691.726 964.942Z" stroke="#C28568" stroke-miterlimit="10"/>
<path d="M702.082 943.43C702.38 943.106 702.857 942.981 703.319 943.122L723.262 949.66C723.838 949.857 724.137 950.426 723.91 950.96C723.7 951.475 723.058 951.78 722.482 951.583L702.539 945.045C701.964 944.848 701.664 944.278 701.891 943.745C701.935 943.625 701.999 943.52 702.082 943.43Z" stroke="#C28568" stroke-miterlimit="10"/>
<path d="M708.243 920.686C708.492 920.416 708.894 920.264 709.296 920.328L730.248 923.549C730.851 923.644 731.236 924.156 731.119 924.713C731.003 925.269 730.437 925.634 729.834 925.539L708.882 922.318C708.279 922.222 707.895 921.71 708.011 921.154C708.034 920.986 708.128 920.812 708.243 920.686Z" stroke="#C28568" stroke-miterlimit="10"/>
<path d="M710.048 897.385C710.246 897.169 710.558 897.009 710.902 897.028L732.224 896.839C732.819 896.836 733.325 897.288 733.315 897.835C733.306 898.382 732.804 898.857 732.209 898.86L710.887 899.049C710.293 899.052 709.787 898.6 709.796 898.053C709.774 897.79 709.882 897.565 710.048 897.385Z" stroke="#C28568" stroke-miterlimit="10"/>
<path d="M707.409 874.231C707.574 874.05 707.798 873.915 708.065 873.874L729.109 870.3C729.696 870.199 730.285 870.56 730.366 871.116C730.464 871.653 730.059 872.202 729.453 872.289L708.409 875.863C707.822 875.965 707.233 875.603 707.151 875.048C707.091 874.755 707.21 874.447 707.409 874.231Z" stroke="#C28568" stroke-miterlimit="10"/>
<path d="M700.459 851.939C700.575 851.813 700.746 851.698 700.938 851.632L721.063 844.763C721.642 844.562 722.277 844.837 722.464 845.35C722.669 845.878 722.357 846.468 721.795 846.651L701.67 853.52C701.092 853.72 700.456 853.446 700.27 852.932C700.097 852.584 700.21 852.209 700.459 851.939Z" stroke="#C28568" stroke-miterlimit="10"/>
<path d="M689.341 831.176C689.424 831.086 689.526 831.011 689.647 830.95L708.238 820.99C708.772 820.694 709.436 820.867 709.746 821.353C710.057 821.838 709.854 822.452 709.32 822.748L690.729 832.708C690.194 833.004 689.531 832.831 689.221 832.346C688.99 831.952 689.043 831.501 689.341 831.176Z" stroke="#C28568" stroke-miterlimit="10"/>
<path d="M674.451 812.586C674.5 812.532 674.533 812.496 674.602 812.456L691.107 799.718C691.582 799.345 692.273 799.416 692.649 799.83C693.045 800.258 692.972 800.91 692.495 801.25L675.991 813.988C675.516 814.362 674.825 814.291 674.448 813.877C674.094 813.511 674.103 812.964 674.451 812.586Z" stroke="#C28568" stroke-miterlimit="10"/>
<path d="M656.233 796.724L670.142 781.585C670.539 781.152 671.236 781.074 671.717 781.445C672.179 781.801 672.25 782.44 671.836 782.891L657.927 798.03C657.53 798.463 656.833 798.541 656.351 798.17C655.87 797.799 655.835 797.157 656.233 796.724Z" stroke="#C28568" stroke-miterlimit="10"/>
<path d="M458.825 1023.27L472.734 1008.13C473.132 1007.69 473.829 1007.62 474.31 1007.99C474.772 1008.34 474.843 1008.98 474.429 1009.43L460.52 1024.57C460.122 1025.01 459.425 1025.08 458.944 1024.71C458.498 1024.34 458.428 1023.7 458.825 1023.27Z" stroke="#C28568" stroke-miterlimit="10"/>
<path d="M493.757 1020.79C494.105 1020.41 494.692 1020.31 495.162 1020.55C495.691 1020.84 495.849 1021.45 495.545 1021.93L484.663 1039C484.342 1039.49 483.67 1039.65 483.161 1039.38C482.633 1039.1 482.474 1038.48 482.778 1038.01L493.661 1020.93C493.674 1020.88 493.724 1020.83 493.757 1020.79Z" stroke="#C28568" stroke-miterlimit="10"/>
<path d="M516.918 1029.84C517.216 1029.52 517.693 1029.39 518.156 1029.53C518.731 1029.73 519.03 1030.3 518.803 1030.83L511.265 1049.31C511.038 1049.85 510.412 1050.14 509.837 1049.94C509.261 1049.74 508.962 1049.17 509.189 1048.64L516.728 1030.16C516.772 1030.04 516.836 1029.93 516.918 1029.84Z" stroke="#C28568" stroke-miterlimit="10"/>
<path d="M541.531 1035.02C541.779 1034.75 542.181 1034.6 542.584 1034.66C543.187 1034.76 543.571 1035.27 543.455 1035.83L539.503 1055.17C539.387 1055.72 538.821 1056.09 538.218 1055.99C537.615 1055.9 537.231 1055.38 537.347 1054.83L541.299 1035.49C541.321 1035.32 541.415 1035.15 541.531 1035.02Z" stroke="#C28568" stroke-miterlimit="10"/>
<path d="M566.857 1036.17C567.056 1035.95 567.367 1035.79 567.711 1035.81C568.306 1035.81 568.812 1036.26 568.803 1036.81L568.553 1056.41C568.544 1056.96 568.042 1057.43 567.447 1057.43C566.852 1057.44 566.346 1056.99 566.355 1056.44L566.605 1036.84C566.603 1036.59 566.691 1036.35 566.857 1036.17Z" stroke="#C28568" stroke-miterlimit="10"/>
<path d="M592.106 1033.28C592.272 1033.1 592.495 1032.96 592.762 1032.92C593.349 1032.82 593.938 1033.18 594.019 1033.74L597.458 1053.01C597.556 1053.55 597.15 1054.1 596.544 1054.19C595.957 1054.29 595.369 1053.93 595.287 1053.37L591.848 1034.1C591.788 1033.8 591.907 1033.5 592.106 1033.28Z" stroke="#C28568" stroke-miterlimit="10"/>
<path d="M616.503 1026.38C616.619 1026.25 616.79 1026.14 616.982 1026.07C617.561 1025.87 618.197 1026.15 618.383 1026.66L625.426 1045.02C625.632 1045.55 625.32 1046.14 624.757 1046.32C624.179 1046.52 623.543 1046.25 623.357 1045.73L616.314 1027.37C616.16 1027.04 616.254 1026.65 616.503 1026.38Z" stroke="#C28568" stroke-miterlimit="10"/>
<path d="M639.311 1015.73C639.393 1015.64 639.495 1015.56 639.617 1015.5C640.152 1015.21 640.815 1015.38 641.125 1015.87L651.564 1032.75C651.875 1033.23 651.673 1033.85 651.138 1034.14C650.603 1034.44 649.939 1034.27 649.629 1033.78L639.19 1016.9C638.943 1016.52 639.013 1016.05 639.311 1015.73Z" stroke="#C28568" stroke-miterlimit="10"/>
<path d="M659.872 1001.65C659.922 1001.6 659.955 1001.56 660.024 1001.52C660.499 1001.15 661.19 1001.22 661.566 1001.64L675.072 1016.54C675.468 1016.97 675.395 1017.62 674.918 1017.96C674.443 1018.34 673.752 1018.27 673.375 1017.85L659.87 1002.95C659.496 1002.56 659.525 1002.03 659.872 1001.65Z" stroke="#C28568" stroke-miterlimit="10"/>
</g>
<g clip-path="url(#clip9_181_251)">
<path d="M624.641 1920.92C624.159 1920.59 623.462 1920.66 623.073 1921.13L610 1936.82C609.627 1937.27 609.697 1937.91 610.199 1938.26C610.681 1938.59 611.378 1938.52 611.768 1938.05L624.84 1922.36C625.214 1921.91 625.123 1921.26 624.641 1920.92Z" stroke="#C28568" stroke-miterlimit="10"/>
<path d="M606.508 1904.9C606.086 1904.61 605.491 1904.63 605.084 1904.97L589.281 1918.37C588.828 1918.77 588.807 1919.4 589.206 1919.8C589.606 1920.19 590.317 1920.22 590.755 1919.84L606.558 1906.44C607.011 1906.05 607.032 1905.41 606.633 1905.02C606.608 1904.97 606.548 1904.93 606.508 1904.9Z" stroke="#C28568" stroke-miterlimit="10"/>
<path d="M591.719 1886.16C591.358 1885.91 590.865 1885.89 590.444 1886.13L572.402 1896.85C571.883 1897.17 571.715 1897.79 572.052 1898.26C572.37 1898.71 573.063 1898.87 573.581 1898.55L591.624 1887.83C592.143 1887.52 592.311 1886.9 591.974 1886.42C591.904 1886.32 591.819 1886.23 591.719 1886.16Z" stroke="#C28568" stroke-miterlimit="10"/>
<path d="M580.756 1865.3C580.455 1865.09 580.029 1865.03 579.65 1865.18L559.901 1872.88C559.333 1873.11 559.069 1873.69 559.304 1874.21C559.539 1874.73 560.17 1874.96 560.738 1874.73L580.487 1867.03C581.055 1866.81 581.319 1866.22 581.084 1865.71C581.026 1865.55 580.896 1865.4 580.756 1865.3Z" stroke="#C28568" stroke-miterlimit="10"/>
<path d="M573.924 1842.95C573.683 1842.78 573.344 1842.69 573.013 1842.79L552.161 1847.24C551.579 1847.37 551.184 1847.92 551.312 1848.45C551.44 1848.98 552.033 1849.34 552.615 1849.21L573.467 1844.76C574.048 1844.63 574.443 1844.08 574.315 1843.55C574.279 1843.29 574.125 1843.09 573.924 1842.95Z" stroke="#C28568" stroke-miterlimit="10"/>
<path d="M571.461 1819.78C571.26 1819.64 571.013 1819.55 570.743 1819.57L549.426 1820.66C548.831 1820.69 548.335 1821.17 548.376 1821.73C548.397 1822.28 548.913 1822.72 549.523 1822.68L570.841 1821.59C571.436 1821.56 571.932 1821.08 571.891 1820.52C571.886 1820.22 571.702 1819.94 571.461 1819.78Z" stroke="#C28568" stroke-miterlimit="10"/>
<path d="M573.395 1796.51C573.254 1796.41 573.062 1796.33 572.859 1796.31L551.723 1793.98C551.114 1793.92 550.553 1794.32 550.483 1794.86C550.397 1795.42 550.831 1795.93 551.419 1795.99L572.556 1798.31C573.164 1798.38 573.725 1797.98 573.795 1797.43C573.888 1797.06 573.696 1796.72 573.395 1796.51Z" stroke="#C28568" stroke-miterlimit="10"/>
<path d="M579.728 1773.82C579.627 1773.75 579.511 1773.7 579.38 1773.67L559.068 1767.99C558.481 1767.82 557.871 1768.13 557.674 1768.67C557.477 1769.21 557.808 1769.77 558.394 1769.94L578.706 1775.62C579.293 1775.79 579.903 1775.48 580.1 1774.94C580.239 1774.5 580.089 1774.07 579.728 1773.82Z" stroke="#C28568" stroke-miterlimit="10"/>
<path d="M590.216 1752.44C590.155 1752.39 590.115 1752.37 590.04 1752.34L571.158 1743.5C570.614 1743.24 569.955 1743.46 569.677 1743.95C569.384 1744.45 569.597 1745.07 570.137 1745.3L589.018 1754.14C589.562 1754.4 590.221 1754.18 590.499 1753.7C590.766 1753.26 590.637 1752.73 590.216 1752.44Z" stroke="#C28568" stroke-miterlimit="10"/>
<path d="M604.546 1732.99L587.676 1721.24C587.194 1720.9 586.497 1720.98 586.108 1721.45C585.734 1721.89 585.804 1722.53 586.307 1722.88L603.177 1734.63C603.659 1734.97 604.356 1734.89 604.745 1734.43C605.134 1733.96 605.028 1733.33 604.546 1732.99Z" stroke="#C28568" stroke-miterlimit="10"/>
<path d="M846.519 1911.15L829.649 1899.4C829.167 1899.06 828.469 1899.14 828.08 1899.6C827.707 1900.05 827.777 1900.69 828.279 1901.04L845.149 1912.79C845.631 1913.13 846.329 1913.05 846.718 1912.59C847.071 1912.12 847.001 1911.48 846.519 1911.15Z" stroke="#C28568" stroke-miterlimit="10"/>
<path d="M811.886 1916.34C811.464 1916.04 810.869 1916.07 810.462 1916.41C810.008 1916.8 809.987 1917.43 810.387 1917.83L824.723 1932.12C825.143 1932.53 825.834 1932.54 826.272 1932.17C826.726 1931.78 826.747 1931.14 826.348 1930.75L812.011 1916.45C811.986 1916.41 811.926 1916.36 811.886 1916.34Z" stroke="#C28568" stroke-miterlimit="10"/>
<path d="M791.249 1930.21C790.888 1929.96 790.395 1929.94 789.974 1930.18C789.456 1930.49 789.288 1931.11 789.625 1931.59L801.004 1947.98C801.342 1948.45 802.015 1948.6 802.534 1948.28C803.052 1947.96 803.221 1947.34 802.883 1946.87L791.504 1930.47C791.434 1930.37 791.35 1930.28 791.249 1930.21Z" stroke="#C28568" stroke-miterlimit="10"/>
<path d="M768.354 1940.62C768.052 1940.41 767.627 1940.35 767.248 1940.5C766.68 1940.72 766.416 1941.31 766.651 1941.82L774.716 1959.84C774.951 1960.36 775.582 1960.59 776.149 1960.36C776.717 1960.14 776.981 1959.56 776.746 1959.04L768.682 1941.03C768.624 1940.87 768.494 1940.72 768.354 1940.62Z" stroke="#C28568" stroke-miterlimit="10"/>
<path d="M743.884 1947.25C743.643 1947.08 743.304 1946.99 742.972 1947.08C742.39 1947.21 741.995 1947.76 742.123 1948.29L746.633 1967.37C746.761 1967.91 747.354 1968.26 747.936 1968.13C748.517 1968.01 748.913 1967.46 748.785 1966.92L744.275 1947.84C744.223 1947.6 744.084 1947.39 743.884 1947.25Z" stroke="#C28568" stroke-miterlimit="10"/>
<path d="M718.612 1949.92C718.411 1949.78 718.163 1949.7 717.894 1949.72C717.299 1949.75 716.803 1950.23 716.844 1950.79L717.682 1970.35C717.703 1970.9 718.219 1971.34 718.829 1971.3C719.424 1971.27 719.92 1970.79 719.879 1970.23L719.041 1950.66C719.036 1950.37 718.853 1950.09 718.612 1949.92Z" stroke="#C28568" stroke-miterlimit="10"/>
<path d="M693.297 1948.5C693.157 1948.4 692.965 1948.32 692.762 1948.3C692.154 1948.23 691.593 1948.64 691.523 1949.18L688.644 1968.63C688.558 1969.19 688.991 1969.7 689.58 1969.76C690.188 1969.83 690.749 1969.42 690.819 1968.88L693.698 1949.42C693.775 1949.07 693.599 1948.71 693.297 1948.5Z" stroke="#C28568" stroke-miterlimit="10"/>
<path d="M668.719 1943.06C668.618 1942.99 668.502 1942.94 668.371 1942.91C667.784 1942.74 667.174 1943.05 666.977 1943.59L660.462 1962.34C660.265 1962.89 660.596 1963.44 661.182 1963.61C661.769 1963.79 662.379 1963.47 662.576 1962.93L669.091 1944.18C669.251 1943.76 669.08 1943.32 668.719 1943.06Z" stroke="#C28568" stroke-miterlimit="10"/>
<path d="M645.587 1933.8C645.526 1933.76 645.486 1933.73 645.41 1933.71C644.866 1933.45 644.207 1933.67 643.929 1934.15L633.991 1951.64C633.698 1952.14 633.911 1952.77 634.451 1952.99C634.995 1953.25 635.654 1953.03 635.932 1952.55L645.87 1935.06C646.152 1934.61 646.008 1934.1 645.587 1933.8Z" stroke="#C28568" stroke-miterlimit="10"/>
</g>
<defs>
<clipPath id="clip0_181_251">
<rect width="92.0001" height="92.0001" fill="white" transform="translate(831 173)"/>
</clipPath>
<clipPath id="clip1_181_251">
<rect width="100" height="100" fill="white" transform="translate(1313 73)"/>
</clipPath>
<clipPath id="clip2_181_251">
<rect width="100" height="100" fill="white"/>
</clipPath>
<clipPath id="clip3_181_251">
<rect width="114" height="114" fill="white" transform="translate(7 1034)"/>
</clipPath>
<clipPath id="clip4_181_251">
<rect width="92.0001" height="92.0001" fill="white" transform="translate(1159 878)"/>
</clipPath>
<clipPath id="clip5_181_251">
<rect width="92.0001" height="92.0001" fill="white" transform="translate(464 1148)"/>
</clipPath>
<clipPath id="clip6_181_251">
<rect width="92.0001" height="92.0001" fill="white" transform="translate(1238 1972)"/>
</clipPath>
<clipPath id="clip7_181_251">
<rect width="100" height="100" fill="white" transform="translate(337 1794)"/>
</clipPath>
<clipPath id="clip8_181_251">
<rect width="326.175" height="168.23" fill="white" transform="matrix(-0.676546 0.736401 -0.791985 -0.610541 803.954 881.878)"/>
</clipPath>
<clipPath id="clip9_181_251">
<rect width="326.175" height="168.23" fill="white" transform="matrix(0.820577 0.571537 0.640151 -0.768249 478.894 1848.25)"/>
</clipPath>
</defs>
</svg>
