<?xml version="1.0" encoding="UTF-8" standalone="no"?>
<!-- Created with Inkscape (http://www.inkscape.org/) -->

<svg
   width="120.93596mm"
   height="150.46291mm"
   viewBox="0 0 120.93596 150.46291"
   version="1.1"
   id="svg1"
   xml:space="preserve"
   xmlns="http://www.w3.org/2000/svg"
   xmlns:svg="http://www.w3.org/2000/svg"><defs
     id="defs1" /><g
     id="layer1"
     transform="translate(-69.05501,218.89224)"><g
       id="g1"
       transform="matrix(0.21813036,0,0,0.22035997,215.59847,2.9341212)"><g
         id="g2"
         transform="matrix(2.100874,0,0,2.100874,-561.08379,-804.55319)"><path
           fill="#ff004f"
           d="m 211.19231,12.7613 v 49.13 c -8.6,-0.84 -19.74,-2.78 -32.09,-7.31 -16.13,-5.91 -28.13,-13.99 -35.98,-20.25 v 99.32 l -0.19,-0.31 c 0.14,1.96 0.19,3.97 0.19,5.99 0,49.33 -40.13,89.48 -89.48,89.48 -49.35,0 -89.48,-40.15 -89.48,-89.48 0,-49.33 40.13,-89.5 89.48,-89.5 4.82,0 9.57,0.39 14.2,1.13 v 48.43 c -4.45,-1.6 -9.22,-2.45 -14.2,-2.45 -23.36,0 -42.38,19 -42.38,42.38 0,23.38 19.02,42.38 42.38,42.38 23.36,0 42.38,-19.02 42.38,-42.38 0,-0.88 -0.02,-1.75 -0.08,-2.63 v -193.01 h 49.11 c 0.18,4.16 0.35,8.34 0.53,12.51 0.33,8.19 3.25,16.05 8.32,22.49 5.97,7.57 14.76,16.36 27.13,23.38 11.57,6.56 22.45,9.38 30.15,10.7 z"
           id="path1" /><path
           fill="#00f7ef"
           d="m 194.32231,-27.1287 v 49.13 c -8.6,-0.84 -19.74,-2.78 -32.09,-7.31 -16.13,-5.91 -28.13,-13.99 -35.98,-20.25 v 99.32 l -0.19,-0.31 c 0.14,1.96 0.19,3.97 0.19,5.99 0,49.33 -40.13,89.48 -89.48,89.48 -49.35,0 -89.48,-40.15 -89.48,-89.48 0,-49.33 40.13,-89.5 89.48,-89.5 4.82,0 9.57,0.39 14.2,1.13 v 48.43 c -4.45,-1.6 -9.22,-2.45 -14.2,-2.45 -23.36,0 -42.38,19 -42.38,42.38 0,23.38 19.02,42.38 42.38,42.38 23.36,0 42.38,-19.02 42.38,-42.38 0,-0.88 -0.02,-1.75 -0.08,-2.63 v -193 h 49.11 c 0.18,4.16 0.35,8.34 0.53,12.51 0.33,8.19 3.25,16.05 8.33,22.49 5.97,7.57 14.76,16.36 27.13,23.38 11.57,6.56 22.45,9.38 30.15,10.7 z"
           id="path2" /><path
           fill="#ffffff"
           d="m 205.06231,-5.6487 v 49.13 c -8.6,-0.84 -19.74,-2.78 -32.09,-7.31 -16.13,-5.91 -28.13,-13.99 -35.98,-20.25 v 99.32 l -0.19,-0.31 c 0.14,1.96 0.19,3.97 0.19,5.99 0,49.33 -40.13,89.48 -89.48,89.48 -49.35,0 -89.48,-40.15 -89.48,-89.48 0,-49.33 40.13,-89.5 89.48,-89.5 4.82,0 9.57,0.39 14.2,1.13 v 48.43 c -4.45,-1.6 -9.22,-2.45 -14.2,-2.45 -23.36,0 -42.38,19 -42.38,42.38 0,23.38 19.02,42.38 42.38,42.38 23.36,0 42.38,-19.02 42.38,-42.38 0,-0.88 -0.02,-1.75 -0.08,-2.63 v -193 h 49.11 c 0.18,4.16 0.35,8.34 0.53,12.51 0.33,8.19 3.25,16.05 8.32,22.49 5.97,7.57 14.76,16.36 27.13,23.38 11.57,6.56 22.45,9.38 30.15,10.7 z"
           id="path3" /></g></g></g></svg>
